<svg enable-background="new 0 0 24 24" height="512" viewBox="0 0 24 24" width="512" xmlns="http://www.w3.org/2000/svg"><path d="m12 0c6.615 0 12 5.383 12 12 0 6.615-5.385 12-12 12-6.617 0-12-5.385-12-12 0-6.617 5.383-12 12-12z" fill="#c2185b"/><g fill="#ec407a"><path d="m18.562 4.081v-.001c-2.439-2.024-5.621-2.78-8.664-2.15 1.248 1.769 2.382 3.61 3.379 5.519 1.888-.88 3.664-2.015 5.285-3.368z"/><path d="m15.275 11.831v-.001c2.277-.467 4.646-.511 6.994-.121-.069-2.451-.991-4.687-2.486-6.418-1.765 1.487-3.705 2.719-5.766 3.682.452.939.87 1.891 1.258 2.858z"/><path d="m11.678 8.097c-1.031-1.955-2.198-3.841-3.501-5.641-3.088 1.238-5.428 3.926-6.191 7.225 3.329.142 6.624-.412 9.692-1.584z"/><path d="m13.605 12.257c-.358-.881-.745-1.749-1.159-2.607-3.36 1.309-6.9 1.941-10.701 1.736-.157 2.81.753 5.295 2.393 7.24 2.47-3.067 5.791-5.265 9.467-6.369z"/><path d="m15.905 13.453v.001c.817 2.28 1.458 4.624 1.929 7.013 2.318-1.599 3.936-4.125 4.342-7.042-2.102-.372-4.226-.356-6.271.028z"/><path d="m5.354 19.845h.001c3.045 2.583 7.275 3.169 10.907 1.507-.471-2.561-1.157-5.067-2.042-7.501-3.455 1.01-6.577 3.084-8.866 5.994z"/></g></svg>