<svg height="512pt" viewBox="-21 0 512 512.00001" width="512pt" xmlns="http://www.w3.org/2000/svg"><g fill="#4caf50"><path d="m469.332031 78.675781c0 43.453125-35.222656 78.679688-78.675781 78.679688s-78.675781-35.226563-78.675781-78.679688c0-43.449219 35.222656-78.675781 78.675781-78.675781s78.675781 35.226562 78.675781 78.675781zm0 0"/><path d="m469.332031 433.324219c0 43.449219-35.222656 78.675781-78.675781 78.675781s-78.675781-35.226562-78.675781-78.675781c0-43.453125 35.222656-78.679688 78.675781-78.679688s78.675781 35.226563 78.675781 78.679688zm0 0"/><path d="m150.65625 253.996094c0 41.601562-33.726562 75.328125-75.328125 75.328125s-75.328125-33.726563-75.328125-75.328125c0-41.605469 33.726562-75.328125 75.328125-75.328125s75.328125 33.722656 75.328125 75.328125zm0 0"/></g><path d="m389.332031 160c-44.09375 0-80-35.902344-80-80s35.90625-80 80-80c44.097657 0 80 35.902344 80 80s-35.902343 80-80 80zm0-128c-26.453125 0-48 21.546875-48 48s21.546875 48 48 48 48-21.546875 48-48-21.546875-48-48-48zm0 0"/><path d="m389.332031 512c-44.09375 0-80-35.902344-80-80s35.90625-80 80-80c44.097657 0 80 35.902344 80 80s-35.902343 80-80 80zm0-128c-26.453125 0-48 21.546875-48 48s21.546875 48 48 48 48-21.546875 48-48-21.546875-48-48-48zm0 0"/><path d="m80 336c-44.097656 0-80-35.902344-80-80s35.902344-80 80-80 80 35.902344 80 80-35.902344 80-80 80zm0-128c-26.453125 0-48 21.546875-48 48s21.546875 48 48 48 48-21.546875 48-48-21.546875-48-48-48zm0 0"/><path d="m135.703125 240.449219c-5.570313 0-10.988281-2.902344-13.910156-8.085938-4.375-7.660156-1.707031-17.429687 5.972656-21.804687l197.953125-112.851563c7.636719-4.4375 17.449219-1.707031 21.800781 5.972657 4.375 7.660156 1.707031 17.429687-5.972656 21.804687l-197.953125 112.851563c-2.496094 1.429687-5.203125 2.113281-7.890625 2.113281zm0 0"/><path d="m333.632812 416.449219c-2.6875 0-5.398437-.664063-7.894531-2.113281l-197.953125-112.851563c-7.679687-4.375-10.34375-14.144531-5.972656-21.804687 4.332031-7.679688 14.125-10.410157 21.804688-5.972657l197.949218 112.851563c7.679688 4.375 10.347656 14.144531 5.976563 21.804687-2.945313 5.183594-8.363281 8.085938-13.910157 8.085938zm0 0"/></svg>